<svg width="1600" height="900" viewBox="0 0 1600 900" fill="none" xmlns="http://www.w3.org/2000/svg">
  <defs>
    <linearGradient id="bg" x1="100" y1="40" x2="1500" y2="860" gradientUnits="userSpaceOnUse">
      <stop stop-color="#FCFEFF"/>
      <stop offset="1" stop-color="#EEF5FF"/>
    </linearGradient>
    <linearGradient id="glowA" x1="0" y1="0" x2="1" y2="1">
      <stop stop-color="#BAE6FD"/>
      <stop offset="1" stop-color="#C4B5FD"/>
    </linearGradient>
    <linearGradient id="glowB" x1="0" y1="0" x2="1" y2="1">
      <stop stop-color="#67E8F9"/>
      <stop offset="1" stop-color="#60A5FA"/>
    </linearGradient>
    <linearGradient id="glue" x1="642" y1="258" x2="958" y2="530" gradientUnits="userSpaceOnUse">
      <stop stop-color="#2563EB"/>
      <stop offset="1" stop-color="#7C3AED"/>
    </linearGradient>
    <filter id="blur" x="0" y="0" width="1600" height="900" filterUnits="userSpaceOnUse">
      <feGaussianBlur stdDeviation="70"/>
    </filter>
    <filter id="shadow" x="570" y="220" width="460" height="350" filterUnits="userSpaceOnUse">
      <feOffset dy="18"/>
      <feGaussianBlur stdDeviation="22"/>
      <feColorMatrix type="matrix" values="0 0 0 0 0.227 0 0 0 0 0.369 0 0 0 0 0.749 0 0 0 0.18 0"/>
      <feBlend in2="SourceGraphic" result="shape"/>
    </filter>
  </defs>

  <rect width="1600" height="900" rx="36" fill="url(#bg)"/>

  <g opacity="0.6" filter="url(#blur)">
    <circle cx="260" cy="150" r="150" fill="url(#glowA)"/>
    <circle cx="1340" cy="190" r="170" fill="#DDD6FE"/>
    <circle cx="1180" cy="760" r="170" fill="#BFDBFE"/>
  </g>

  <text x="120" y="170" fill="#0F172A" font-family="Inter, Arial, sans-serif" font-size="112" font-weight="800">AgentGlue</text>
  <text x="122" y="236" fill="#2563EB" font-family="Inter, Arial, sans-serif" font-size="34" font-weight="700">Middleware orchestration for multi-agent systems</text>
  <text x="122" y="294" fill="#334155" font-family="Inter, Arial, sans-serif" font-size="30">Coordinate shared work across agents, tools, and processes.</text>

  <g filter="url(#shadow)">
    <rect x="620" y="252" width="340" height="246" rx="34" fill="url(#glue)"/>
  </g>
  <text x="706" y="355" fill="#F8FAFC" font-family="Inter, Arial, sans-serif" font-size="62" font-weight="800">AgentGlue</text>
  <text x="684" y="406" fill="#DBEAFE" font-family="Inter, Arial, sans-serif" font-size="24" font-weight="600">coordination middleware</text>

  <g>
    <rect x="180" y="358" width="210" height="84" rx="24" fill="#FFFFFF" stroke="#D6E4FF"/>
    <text x="243" y="410" fill="#0F172A" font-family="Inter, Arial, sans-serif" font-size="34" font-weight="700">Agent A</text>

    <rect x="180" y="496" width="210" height="84" rx="24" fill="#FFFFFF" stroke="#D6E4FF"/>
    <text x="243" y="548" fill="#0F172A" font-family="Inter, Arial, sans-serif" font-size="34" font-weight="700">Agent B</text>

    <rect x="180" y="634" width="210" height="84" rx="24" fill="#FFFFFF" stroke="#D6E4FF"/>
    <text x="243" y="686" fill="#0F172A" font-family="Inter, Arial, sans-serif" font-size="34" font-weight="700">Agent C</text>
  </g>

  <g>
    <rect x="1188" y="330" width="248" height="84" rx="24" fill="#FFFFFF" stroke="#D6E4FF"/>
    <text x="1258" y="382" fill="#0F172A" font-family="Inter, Arial, sans-serif" font-size="32" font-weight="700">Tools / APIs</text>

    <rect x="1188" y="468" width="248" height="84" rx="24" fill="#FFFFFF" stroke="#D6E4FF"/>
    <text x="1232" y="520" fill="#0F172A" font-family="Inter, Arial, sans-serif" font-size="32" font-weight="700">Files / Search</text>

    <rect x="1188" y="606" width="248" height="84" rx="24" fill="#FFFFFF" stroke="#D6E4FF"/>
    <text x="1234" y="658" fill="#0F172A" font-family="Inter, Arial, sans-serif" font-size="32" font-weight="700">Shared State</text>
  </g>

  <g stroke="url(#glowB)" stroke-width="8" stroke-linecap="round" opacity="0.95">
    <path d="M390 400C500 400 558 390 620 376"/>
    <path d="M390 538C500 538 558 488 620 414"/>
    <path d="M390 676C500 676 558 564 620 454"/>
    <path d="M960 376C1058 376 1120 360 1188 372"/>
    <path d="M960 420C1058 432 1120 472 1188 510"/>
    <path d="M960 456C1058 486 1120 592 1188 648"/>
  </g>

  <g>
    <circle cx="620" cy="376" r="10" fill="#60A5FA"/>
    <circle cx="620" cy="414" r="10" fill="#60A5FA"/>
    <circle cx="620" cy="454" r="10" fill="#60A5FA"/>
    <circle cx="1188" cy="372" r="10" fill="#60A5FA"/>
    <circle cx="1188" cy="510" r="10" fill="#60A5FA"/>
    <circle cx="1188" cy="648" r="10" fill="#60A5FA"/>
  </g>

  <rect x="120" y="788" width="280" height="70" rx="20" fill="#FFFFFF" stroke="#D6E4FF"/>
  <text x="154" y="833" fill="#0284C7" font-family="Inter, Arial, sans-serif" font-size="22" font-weight="700">3.7× speedup on benchmark suite</text>

  <rect x="430" y="788" width="266" height="70" rx="20" fill="#FFFFFF" stroke="#D6E4FF"/>
  <text x="466" y="833" fill="#7C3AED" font-family="Inter, Arial, sans-serif" font-size="22" font-weight="700">SQLite-backed coordination</text>

  <rect x="724" y="788" width="300" height="70" rx="20" fill="#FFFFFF" stroke="#D6E4FF"/>
  <text x="760" y="833" fill="#2563EB" font-family="Inter, Arial, sans-serif" font-size="22" font-weight="700">Framework-agnostic runtime layer</text>
</svg>
